<svg preserveAspectRatio="xMaxYMid meet"  viewBox="0 0 902 238" fill="none" xmlns="http://www.w3.org/2000/svg">
<path d="M81.4458 82.9544C81.4458 82.9544 40.7229 80.9792 40.7229 41.8064C40.7229 19.751 56.1582 3.62102 77.5049 3.62102C98.5232 3.62102 101.807 14.1549 88.014 14.1549C72.5787 14.1549 62.7264 26.3347 62.7264 40.1604C62.7264 53.9862 75.8628 65.1784 89.6561 65.1784C105.748 65.1784 118.556 53.3278 118.556 36.2102C118.556 18.1051 101.479 0 77.8333 0C47.9479 0 21.0183 27.9806 21.0183 82.9544H0V86.5754H21.0183V204.423C20.6899 220.553 17.7342 230.429 0 230.429V234.05H102.464V230.429C84.7299 230.429 81.7742 220.553 81.4458 204.423V86.5754H114.944V82.9544H81.4458Z" fill="black"/>
<path d="M197.896 204.094V3.62102H116.778V7.57123C134.184 7.57123 137.14 17.4467 137.468 33.5768V204.094C137.14 220.553 134.184 230.429 116.778 230.429V234.05H218.914V230.429C201.18 230.429 198.552 220.553 197.896 204.094Z" fill="black"/>
<path d="M304.724 79.0041C262.031 79.0041 221.308 107.314 221.308 158.337C221.308 209.361 262.031 237.671 304.724 237.671C347.417 237.671 388.469 209.361 388.469 158.337C388.469 107.314 347.417 79.0041 304.724 79.0041ZM304.724 234.05C280.422 234.05 284.034 191.256 284.034 158.337C284.034 125.419 280.422 82.9544 304.724 82.9544C329.026 82.9544 325.414 125.419 325.414 158.337C325.414 191.256 329.026 234.05 304.724 234.05Z" fill="black"/>
<path d="M551.273 191.914C542.734 214.628 522.701 233.062 493.801 233.062C458.99 233.062 461.617 181.71 461.617 164.263C461.617 124.432 460.96 83.9419 495.443 83.9419C519.417 83.9419 538.137 98.7552 524.343 98.7552C509.565 98.7552 497.414 110.935 496.757 125.419C496.1 141.549 508.908 154.716 524.672 154.716C540.107 154.716 552.587 142.537 552.587 126.736C552.587 99.0844 524.343 79.0041 488.218 79.0041C445.525 79.0041 398.891 113.239 398.891 158.667C398.891 209.69 443.554 237.671 486.248 237.671C524.343 237.671 545.69 216.603 554.557 191.914H551.273Z" fill="black"/>
<path d="M743.716 217.591L682.961 119.823L688.543 115.214C707.591 99.0844 725.982 86.5754 746.672 86.5754V82.9544H664.569V86.5754C696.097 86.5754 691.171 105.01 677.377 116.86L634.356 154.387V3.62102H552.91V7.57123C570.316 7.57123 573.271 17.4467 573.6 33.5768V204.094C573.271 220.553 570.316 230.429 552.91 230.429V234.05H649.463V230.429C637.64 230.429 634.356 224.174 634.356 211.007V161.959L639.282 157.35L672.123 211.336C677.378 219.895 676.392 230.429 658.658 230.429V234.05H769.004V230.429C756.196 230.429 749.956 227.795 743.716 217.591Z" fill="black"/>
<path d="M849.454 130.357L842.886 128.711C835.661 127.065 810.373 123.115 810.373 104.68C810.373 88.5505 825.48 82.9544 837.96 82.9544C877.041 82.9544 887.55 113.568 887.55 132.332H890.177V79.0041H887.222C886.565 86.9046 884.594 94.805 865.218 85.917C860.62 83.6127 849.126 79.0041 833.362 79.0041C812.344 79.0041 773.92 87.8921 773.92 131.015C773.92 165.25 798.222 176.443 819.241 182.039L830.407 185.331C843.215 188.622 864.89 193.56 864.89 211.336C864.89 224.174 855.037 234.05 834.676 234.05C786.4 234.05 777.861 185.66 777.861 171.176H774.577V238H777.861C778.518 230.1 781.145 219.895 799.536 228.783L806.433 231.745C813.658 234.708 823.181 237.671 838.288 237.671C856.023 237.671 902 231.416 902 184.343C902 139.245 861.277 132.99 849.454 130.357Z" fill="black"/>
</svg>
